REM DIRINDEX 1\2,1\3\7,1\3\8,1\4\9,1\4\10,1\4\11,1\5\12,1\5\13,1\5\14,1\6\15,1\6\16,1\6\17
REM DIRNAME "folder01","folder02","folder03","folder04","folder05","folder06","folder07","folder08","folder09","folder10","folder11","folder12","folder13","folder14","folder15","folder16","folder17"
TITLE ""
FILE "2Q_j_1491-1500.mp3" MP3
  TRACK 01 AUDIO
    TITLE "0:"
    INDEX 01 00:00:00
  TRACK 02 AUDIO
    TITLE "9:cjc174_0690"
    INDEX 01 00:00:12
  TRACK 03 AUDIO
    TITLE "0:"
    INDEX 01 00:01:41
  TRACK 04 AUDIO
    TITLE "10:cjc174_0691"
    INDEX 01 00:02:13
  TRACK 05 AUDIO
    TITLE "0:"
    INDEX 01 00:05:64
  TRACK 06 AUDIO
    TITLE "11:cjc174_0692"
    INDEX 01 00:06:34
  TRACK 07 AUDIO
    TITLE "0:"
    INDEX 01 00:10:50
  TRACK 08 AUDIO
    TITLE "9:cjc174_0693"
    INDEX 01 00:11:26
  TRACK 09 AUDIO
    TITLE "0:"
    INDEX 01 00:12:41
  TRACK 10 AUDIO
    TITLE "10:cjc174_0694"
    INDEX 01 00:13:15
  TRACK 11 AUDIO
    TITLE "0:"
    INDEX 01 00:14:50
  TRACK 12 AUDIO
    TITLE "11:cjc174_0695"
    INDEX 01 00:15:18
  TRACK 13 AUDIO
    TITLE "0:"
    INDEX 01 00:18:28
  TRACK 14 AUDIO
    TITLE "9:cjc174_0696"
    INDEX 01 00:19:00
  TRACK 15 AUDIO
    TITLE "0:"
    INDEX 01 00:20:29
  TRACK 16 AUDIO
    TITLE "10:cjc174_0697"
    INDEX 01 00:21:01
  TRACK 17 AUDIO
    TITLE "0:"
    INDEX 01 00:24:21
  TRACK 18 AUDIO
    TITLE "11:cjc174_0698"
    INDEX 01 00:24:66
  TRACK 19 AUDIO
    TITLE "0:"
    INDEX 01 00:29:51
  TRACK 20 AUDIO
    TITLE "9:cjc174_0699"
    INDEX 01 00:30:25
  TRACK 21 AUDIO
    TITLE "0:"
    INDEX 01 00:31:50
  TRACK 22 AUDIO
    TITLE "10:cjc174_0700"
    INDEX 01 00:32:22
  TRACK 23 AUDIO
    TITLE "0:"
    INDEX 01 00:36:10
  TRACK 24 AUDIO
    TITLE "11:cjc174_0701"
    INDEX 01 00:36:53
  TRACK 25 AUDIO
    TITLE "0:"
    INDEX 01 00:40:74
  TRACK 26 AUDIO
    TITLE "9:cjc174_0702"
    INDEX 01 00:41:54
  TRACK 27 AUDIO
    TITLE "0:"
    INDEX 01 00:43:02
  TRACK 28 AUDIO
    TITLE "10:cjc174_0703"
    INDEX 01 00:43:47
  TRACK 29 AUDIO
    TITLE "0:"
    INDEX 01 00:45:62
  TRACK 30 AUDIO
    TITLE "11:cjc174_0704"
    INDEX 01 00:46:32
  TRACK 31 AUDIO
    TITLE "0:"
    INDEX 01 00:50:42
  TRACK 32 AUDIO
    TITLE "9:cjc174_0705"
    INDEX 01 00:51:16
  TRACK 33 AUDIO
    TITLE "0:"
    INDEX 01 00:52:29
  TRACK 34 AUDIO
    TITLE "10:cjc174_0706"
    INDEX 01 00:53:10
  TRACK 35 AUDIO
    TITLE "0:"
    INDEX 01 00:56:72
  TRACK 36 AUDIO
    TITLE "11:cjc174_0707"
    INDEX 01 00:57:42
  TRACK 37 AUDIO
    TITLE "0:"
    INDEX 01 01:02:00
  TRACK 38 AUDIO
    TITLE "9:cjc174_0708"
    INDEX 01 01:02:51
  TRACK 39 AUDIO
    TITLE "0:"
    INDEX 01 01:04:01
  TRACK 40 AUDIO
    TITLE "10:cjc174_0709"
    INDEX 01 01:04:46
  TRACK 41 AUDIO
    TITLE "0:"
    INDEX 01 01:10:64
  TRACK 42 AUDIO
    TITLE "11:cjc174_0710"
    INDEX 01 01:11:32
  TRACK 43 AUDIO
    TITLE "0:"
    INDEX 01 01:15:39
  TRACK 44 AUDIO
    TITLE "9:cjc174_0711"
    INDEX 01 01:16:10
  TRACK 45 AUDIO
    TITLE "0:"
    INDEX 01 01:17:31
  TRACK 46 AUDIO
    TITLE "10:cjc174_0712"
    INDEX 01 01:18:03
  TRACK 47 AUDIO
    TITLE "0:"
    INDEX 01 01:19:69
  TRACK 48 AUDIO
    TITLE "11:cjc174_0713"
    INDEX 01 01:20:39
  TRACK 49 AUDIO
    TITLE "0:"
    INDEX 01 01:24:27
  TRACK 50 AUDIO
    TITLE "9:cjc174_0714"
    INDEX 01 01:24:74
  TRACK 51 AUDIO
    TITLE "0:"
    INDEX 01 01:26:31
  TRACK 52 AUDIO
    TITLE "10:cjc174_0715"
    INDEX 01 01:27:04
  TRACK 53 AUDIO
    TITLE "0:"
    INDEX 01 01:28:58
  TRACK 54 AUDIO
    TITLE "11:cjc174_0716"
    INDEX 01 01:29:26
  TRACK 55 AUDIO
    TITLE "0:"
    INDEX 01 01:33:24
  TRACK 56 AUDIO
    TITLE "9:cjc174_0717"
    INDEX 01 01:33:71
  TRACK 57 AUDIO
    TITLE "0:"
    INDEX 01 01:35:11
  TRACK 58 AUDIO
    TITLE "10:cjc174_0718"
    INDEX 01 01:35:56
  TRACK 59 AUDIO
    TITLE "0:"
    INDEX 01 01:37:02
  TRACK 60 AUDIO
    TITLE "11:cjc174_0719"
    INDEX 01 01:37:49
  TRACK 61 AUDIO
    TITLE "0:"
    INDEX 01 01:41:57
